<!DOCTYPE svg PUBLIC "-//W3C//DTD SVG 20010904//EN" "http://www.w3.org/TR/2001/REC-SVG-20010904/DTD/svg10.dtd">
<svg version="1.0" xmlns="http://www.w3.org/2000/svg" width="739px" height="637px" viewBox="0 0 7390 6370" preserveAspectRatio="xMidYMid meet">
<g id="layer101" fill="#000000" stroke="none">
 <path d="M4411 6293 c-7 -16 -59 -136 -116 -268 -57 -132 -140 -325 -185 -430 -46 -104 -102 -235 -125 -290 -121 -289 -171 -395 -185 -395 -10 0 -21 22 -34 68 -10 37 -33 117 -52 177 -18 61 -63 211 -100 335 -36 124 -69 231 -73 237 -4 7 -20 -31 -35 -85 -16 -53 -66 -218 -111 -367 -45 -148 -88 -294 -95 -322 -10 -36 -19 -53 -30 -53 -9 0 -111 118 -230 265 -118 145 -215 264 -216 262 -2 -2 -31 -363 -39 -497 -9 -128 -15 -162 -30 -158 -8 2 -143 122 -302 268 -378 348 -378 348 -371 329 8 -20 77 -266 116 -414 17 -60 48 -178 71 -262 23 -84 41 -157 41 -162 0 -19 -21 -12 -78 27 -32 22 -127 84 -212 139 -85 55 -330 214 -544 352 -214 139 -395 255 -404 258 -14 6 55 -86 273 -362 61 -77 162 -207 225 -288 63 -82 159 -205 213 -274 53 -68 97 -130 97 -136 0 -7 -9 -23 -19 -36 l-18 -23 -264 62 c-145 35 -283 67 -306 72 l-43 10 0 103 c0 90 -2 106 -18 114 -10 5 -94 37 -187 71 -94 34 -255 94 -360 132 -318 116 -357 129 -362 124 -9 -9 14 -297 57 -711 72 -696 101 -979 103 -1020 l2 -39 -150 -23 c-82 -13 -179 -26 -215 -31 l-65 -7 220 -39 c121 -22 221 -40 222 -41 5 -3 53 -519 53 -562 l0 -41 -72 -30 c-40 -17 -117 -47 -171 -68 -54 -20 -95 -39 -93 -41 3 -3 82 0 177 6 95 6 173 10 175 9 1 -2 10 -112 20 -245 l17 -241 -32 -52 c-18 -29 -29 -56 -24 -60 4 -4 77 -34 160 -66 84 -32 153 -61 153 -64 0 -4 -41 -46 -90 -95 -50 -48 -89 -89 -87 -91 1 -2 74 29 162 67 90 40 168 69 180 66 11 -2 81 -23 155 -46 121 -37 290 -78 392 -96 47 -7 49 -24 10 -86 -15 -24 -40 -65 -55 -90 l-26 -46 185 98 c172 92 188 99 242 99 76 0 162 15 244 42 37 12 71 19 74 15 4 -4 -7 -37 -24 -74 -38 -84 -203 -439 -238 -513 -92 -193 -274 -584 -271 -585 1 -1 114 116 252 259 224 234 653 680 762 793 23 24 47 43 52 43 7 0 11 -57 12 -167 1 -93 4 -291 8 -441 l6 -273 134 213 c74 117 180 286 235 375 100 161 127 188 139 141 13 -48 172 -498 177 -498 3 0 75 117 160 260 97 163 160 260 170 260 9 0 51 -62 105 -153 49 -83 141 -240 205 -347 63 -107 169 -286 235 -397 65 -111 120 -201 122 -199 5 5 -14 153 -92 712 -36 254 -65 473 -65 488 0 15 6 26 13 26 13 0 380 -215 457 -266 19 -13 38 -24 42 -24 4 0 31 -15 60 -34 107 -68 104 -75 44 96 -30 84 -75 210 -100 280 -75 206 -73 220 19 150 28 -21 169 -125 315 -232 146 -106 335 -245 420 -308 85 -64 184 -137 220 -163 36 -26 77 -58 93 -69 15 -12 27 -19 27 -15 0 7 -59 95 -432 647 -158 234 -288 432 -288 439 0 9 42 11 188 6 197 -6 235 -13 516 -83 76 -19 140 -33 143 -31 2 3 -14 20 -37 39 -50 43 -51 58 -4 58 20 0 34 3 32 8 -1 4 -49 96 -105 203 -92 175 -163 322 -163 336 0 2 14 3 32 1 35 -3 48 -22 358 -523 78 -126 157 -253 176 -282 l34 -52 67 31 c38 16 127 58 198 92 72 34 266 127 433 206 166 79 301 147 300 151 -2 4 -120 126 -263 271 -396 401 -715 755 -715 794 0 7 10 15 23 19 19 5 15 9 -28 21 -45 14 -56 24 -110 96 -114 154 -235 330 -235 343 0 12 29 26 270 126 282 116 509 212 570 240 61 28 63 29 25 24 -46 -6 -328 -30 -520 -45 -71 -5 -258 -21 -415 -35 -156 -14 -292 -25 -302 -25 -28 0 -22 18 22 67 52 59 82 140 82 220 l-1 62 141 136 c77 74 137 135 134 135 -7 0 -187 -42 -278 -65 -32 -8 -65 -15 -74 -15 -9 0 -43 24 -75 54 -32 30 -77 65 -99 77 -22 12 -40 28 -40 35 0 8 53 60 119 116 65 57 236 204 379 328 143 124 259 226 258 228 -2 1 -140 -57 -307 -129 -167 -72 -329 -141 -359 -154 -30 -12 -156 -66 -280 -120 -381 -165 -502 -215 -517 -215 -11 0 -14 7 -9 28 6 22 153 558 211 767 8 27 12 51 10 53 -2 2 -64 -51 -137 -119 -73 -68 -160 -149 -193 -179 -34 -30 -118 -108 -188 -172 -70 -65 -134 -118 -142 -118 -20 0 -19 36 5 316 48 562 100 1217 97 1220 -2 2 -9 -8 -16 -23z m-3758 -1673 c105 -39 242 -89 303 -111 61 -23 116 -44 123 -49 9 -5 15 -71 22 -231 8 -206 30 -521 45 -661 l7 -57 124 -103 c69 -57 143 -118 166 -136 123 -98 397 -374 489 -492 l28 -35 -36 100 c-43 122 -87 298 -109 441 -26 162 -17 424 18 558 81 306 235 462 473 483 261 22 521 -114 757 -396 87 -103 187 -252 251 -371 25 -47 46 -81 46 -77 0 5 -31 141 -70 303 -38 162 -70 301 -70 309 0 10 10 15 28 15 68 1 697 -44 700 -49 19 -48 206 -508 244 -601 104 -260 162 -399 165 -396 2 2 -14 81 -36 177 -80 345 -201 902 -201 921 0 18 6 19 83 13 109 -7 454 -25 493 -25 30 0 32 2 37 46 6 55 43 105 111 151 66 45 103 54 241 60 141 6 206 -7 331 -67 274 -132 301 -414 51 -525 -132 -58 -292 -54 -465 12 -21 9 -14 -14 73 -247 185 -491 338 -842 606 -1389 77 -156 137 -286 134 -289 -7 -8 -649 18 -656 26 -6 6 -38 87 -184 467 -30 77 -74 192 -99 255 -25 63 -99 257 -166 430 -192 495 -199 515 -200 509 0 -4 18 -80 39 -170 150 -630 411 -1741 411 -1751 0 -11 -304 -10 -333 1 -20 8 -34 32 -67 118 -23 59 -95 241 -160 403 -65 162 -168 419 -228 570 -122 304 -150 370 -151 354 -1 -11 100 -495 245 -1174 13 -63 24 -123 24 -132 0 -23 3 -23 -335 2 -148 11 -279 20 -291 20 -19 0 -22 8 -28 63 -3 34 -18 150 -33 257 l-27 194 -17 -79 c-36 -166 -97 -293 -183 -383 -104 -109 -212 -148 -381 -139 -225 13 -391 101 -598 317 l-112 117 24 -91 c20 -76 24 -116 25 -241 0 -134 -2 -156 -22 -207 -45 -112 -157 -187 -312 -209 -273 -38 -675 43 -1217 246 l-73 27 0 72 c0 81 -40 607 -71 921 -11 116 -29 305 -40 420 -17 186 -139 1387 -155 1523 -3 34 -2 52 5 52 6 0 98 -32 204 -70z m5307 -1262 c295 -429 492 -666 939 -1127 130 -134 237 -251 238 -260 2 -11 -22 -28 -80 -55 -494 -234 -627 -296 -635 -296 -6 0 -38 44 -72 98 -100 158 -287 458 -362 582 -39 63 -83 133 -98 155 -15 22 -82 130 -149 239 -68 110 -142 229 -166 265 -90 139 -225 364 -225 376 0 13 443 171 485 174 16 1 45 -35 125 -151z"/>
 <path d="M2475 3755 c-99 -52 -144 -141 -145 -285 0 -192 91 -431 262 -681 113 -167 237 -256 341 -246 44 4 56 10 93 49 128 136 124 528 -9 823 -47 105 -93 173 -166 246 -86 85 -142 112 -246 117 -71 3 -86 0 -130 -23z"/>
 <path d="M1234 2758 c3 -18 11 -78 16 -133 17 -151 38 -276 50 -290 16 -20 217 -83 285 -90 77 -7 109 7 113 53 5 47 -49 141 -132 229 -63 68 -229 201 -306 246 l-31 19 5 -34z"/>
 </g>

</svg>